<?xml version="1.0" ?>
<svg xmlns="http://www.w3.org/2000/svg" viewBox="0 0 398 560" width="398" height="560">
	<path d="M 397.00,472.50 L 396.50,473.00 L 396.50,474.00 L 396.00,474.50 L 395.50,475.00 L 395.50,476.00 L 395.00,476.50 L 394.50,477.00 L 394.50,478.00 L 394.00,478.50 L 393.50,479.00 L 393.50,480.00 L 393.00,480.50 L 392.50,481.00 L 392.00,481.50 L 391.50,482.00 L 391.00,482.50 L 390.50,483.00 L 390.00,483.50 L 389.50,484.00 L 389.00,484.50 L 388.50,485.00 L 388.00,485.50 L 387.50,486.00 L 387.00,486.50 L 386.50,487.00 L 386.00,487.50 L 385.00,487.50 L 384.50,488.00 L 384.00,488.50 L 383.00,488.50 L 382.50,489.00 L 382.00,489.50 L 381.00,489.50 L 380.50,490.00 L 380.00,490.50 L 379.00,490.50 L 378.50,491.00 L 378.00,491.50 L 377.00,491.50 L 376.00,491.50 L 375.00,491.50 L 374.50,492.00 L 374.00,492.50 L 373.00,492.50 L 372.00,492.50 L 371.00,492.50 L 370.00,492.50 L 369.00,492.50 L 368.00,492.50 L 367.00,492.50 L 366.00,492.50 L 365.00,492.50 L 364.00,492.50 L 363.00,492.50 L 362.50,492.00 L 362.00,491.50 L 361.00,491.50 L 360.00,491.50 L 359.00,491.50 L 358.50,491.00 L 358.00,490.50 L 357.00,490.50 L 356.00,490.50 L 355.50,490.00 L 355.00,489.50 L 354.00,489.50 L 353.50,489.00 L 353.00,488.50 L 352.50,488.00 L 352.00,487.50 L 351.00,487.50 L 350.50,487.00 L 350.00,486.50 L 349.50,486.00 L 349.00,485.50 L 348.50,485.00 L 348.00,484.50 L 347.00,484.50 L 346.50,484.00 L 346.00,483.50 L 345.50,483.00 L 345.00,482.50 L 344.50,482.00 L 344.00,481.50 L 343.50,481.00 L 343.00,480.50 L 342.50,480.00 L 342.00,479.50 L 341.50,479.00 L 341.00,478.50 L 340.50,478.00 L 340.00,477.50 L 339.50,477.00 L 339.00,476.50 L 338.50,476.00 L 338.00,475.50 L 337.50,475.00 L 337.00,474.50 L 336.50,474.00 L 336.00,473.50 L 335.50,473.00 L 335.00,472.50 L 334.50,472.00 L 334.00,471.50 L 333.50,471.00 L 333.00,470.50 L 332.50,470.00 L 332.00,469.50 L 331.50,469.00 L 331.00,468.50 L 330.50,468.00 L 330.00,467.50 L 329.50,467.00 L 329.00,466.50 L 328.50,466.00 L 328.00,465.50 L 327.50,465.00 L 327.00,464.50 L 326.50,464.00 L 326.00,463.50 L 325.50,463.00 L 325.00,462.50 L 324.50,462.00 L 324.00,461.50 L 323.50,461.00 L 323.00,460.50 L 322.50,460.00 L 322.00,459.50 L 321.50,459.00 L 321.00,458.50 L 320.50,458.00 L 320.00,457.50 L 319.50,457.00 L 319.00,456.50 L 318.50,456.00 L 318.00,455.50 L 317.50,455.00 L 317.00,454.50 L 316.50,454.00 L 316.00,453.50 L 315.50,453.00 L 315.00,452.50 L 314.50,452.00 L 314.00,451.50 L 313.50,451.00 L 313.00,450.50 L 312.50,450.00 L 312.00,449.50 L 311.50,449.00 L 311.00,448.50 L 310.50,448.00 L 310.00,447.50 L 309.50,447.00 L 309.00,446.50 L 308.50,446.00 L 308.00,445.50 L 307.50,445.00 L 307.00,444.50 L 306.50,444.00 L 306.00,443.50 L 305.50,443.00 L 305.00,442.50 L 304.50,442.00 L 304.00,441.50 L 303.50,441.00 L 303.00,440.50 L 302.50,440.00 L 302.00,439.50 L 301.50,439.00 L 301.00,438.50 L 300.50,438.00 L 300.00,437.50 L 299.50,437.00 L 299.00,436.50 L 298.50,436.00 L 298.00,435.50 L 297.50,435.00 L 297.00,434.50 L 296.50,434.00 L 296.00,433.50 L 295.50,433.00 L 295.00,432.50 L 294.50,432.00 L 294.00,431.50 L 293.50,431.00 L 293.00,430.50 L 292.50,430.00 L 292.00,429.50 L 291.50,429.00 L 291.00,428.50 L 290.50,428.00 L 290.00,427.50 L 289.50,427.00 L 289.00,426.50 L 288.50,426.00 L 288.00,425.50 L 287.50,425.00 L 287.00,424.50 L 286.50,424.00 L 286.00,423.50 L 285.50,423.00 L 285.00,422.50 L 284.50,422.00 L 284.50,421.00 L 284.00,420.50 L 283.50,420.00 L 283.00,419.50 L 282.50,419.00 L 282.00,418.50 L 281.50,418.00 L 281.00,417.50 L 280.50,417.00 L 280.00,416.50 L 279.50,416.00 L 279.50,415.00 L 279.00,414.50 L 278.50,414.00 L 278.50,413.00 L 278.00,412.50 L 277.50,412.00 L 277.50,411.00 L 277.00,410.50 L 276.50,410.00 L 276.50,409.00 L 276.50,408.00 L 276.00,407.50 L 275.50,407.00 L 275.50,406.00 L 275.50,405.00 L 275.50,404.00 L 275.00,403.50 L 274.50,403.00 L 274.50,402.00 L 274.50,401.00 L 274.50,400.00 L 274.50,399.00 L 274.50,398.00 L 274.50,397.00 L 274.50,396.00 L 274.50,395.00 L 275.00,394.50 L 275.50,394.00 L 275.50,393.00 L 275.50,392.00 L 275.50,391.00 L 275.50,390.00 L 276.00,389.50 L 276.50,389.00 L 276.50,388.00 L 276.50,387.00 L 277.00,386.50 L 277.50,386.00 L 277.50,385.00 L 278.00,384.50 L 278.50,384.00 L 278.50,383.00 L 279.00,382.50 L 279.50,382.00 L 280.00,381.50 L 280.50,381.00 L 280.50,380.00 L 281.00,379.50 L 281.50,379.00 L 282.00,378.50 L 282.50,378.00 L 283.00,377.50 L 283.50,377.00 L 284.00,376.50 L 284.50,376.00 L 285.00,375.50 L 285.50,375.00 L 286.00,374.50 L 286.50,374.00 L 287.00,373.50 L 288.00,373.50 L 288.50,373.00 L 289.00,372.50 L 289.50,372.00 L 290.00,371.50 L 291.00,371.50 L 291.50,371.00 L 292.00,370.50 L 293.00,370.50 L 294.00,370.50 L 294.50,370.00 L 295.00,369.50 L 296.00,369.50 L 297.00,369.50 L 297.50,369.00 L 298.00,368.50 L 299.00,368.50 L 300.00,368.50 L 301.00,368.50 L 302.00,368.50 L 303.00,368.50 L 304.00,368.50 L 305.00,368.50 L 306.00,368.50 L 307.00,368.50 L 308.00,368.50 L 309.00,368.50 L 310.00,368.50 L 311.00,368.50 L 312.00,368.50 L 313.00,368.50 L 313.50,369.00 L 314.00,369.50 L 315.00,369.50 L 316.00,369.50 L 316.50,370.00 L 317.00,370.50 L 318.00,370.50 L 318.50,371.00 L 319.00,371.50 L 320.00,371.50 L 320.50,372.00 L 321.00,372.50 L 322.00,372.50 L 322.50,373.00 L 323.00,373.50 L 323.50,374.00 L 324.00,374.50 L 325.00,374.50 L 325.50,375.00 L 326.00,375.50 L 326.50,376.00 L 327.00,376.50 L 327.50,377.00 L 328.00,377.50 L 328.50,378.00 L 329.00,378.50 L 329.50,379.00 L 330.00,379.50 L 330.50,380.00 L 331.00,380.50 L 331.50,381.00 L 332.00,381.50 L 332.50,382.00 L 333.00,382.50 L 333.50,383.00 L 334.00,383.50 L 334.50,384.00 L 335.00,384.50 L 335.50,385.00 L 336.00,385.50 L 336.50,386.00 L 337.00,386.50 L 337.50,386.00 L 337.50,385.00 L 337.50,384.00 L 337.50,383.00 L 337.50,382.00 L 337.50,381.00 L 337.50,380.00 L 337.50,379.00 L 337.50,378.00 L 337.50,377.00 L 337.50,376.00 L 337.50,375.00 L 337.50,374.00 L 337.50,373.00 L 337.50,372.00 L 337.50,371.00 L 337.50,370.00 L 337.50,369.00 L 337.50,368.00 L 337.50,367.00 L 337.50,366.00 L 337.50,365.00 L 337.50,364.00 L 337.50,363.00 L 337.50,362.00 L 337.50,361.00 L 337.50,360.00 L 337.50,359.00 L 337.50,358.00 L 337.50,357.00 L 337.50,356.00 L 337.50,355.00 L 337.50,354.00 L 337.50,353.00 L 337.50,352.00 L 337.50,351.00 L 337.50,350.00 L 337.50,349.00 L 337.50,348.00 L 337.50,347.00 L 337.50,346.00 L 337.50,345.00 L 337.50,344.00 L 337.50,343.00 L 337.50,342.00 L 337.50,341.00 L 337.50,340.00 L 337.50,339.00 L 337.50,338.00 L 337.50,337.00 L 337.50,336.00 L 337.50,335.00 L 337.50,334.00 L 337.50,333.00 L 337.50,332.00 L 337.50,331.00 L 337.50,330.00 L 337.50,329.00 L 337.50,328.00 L 337.50,327.00 L 337.50,326.00 L 337.50,325.00 L 337.50,324.00 L 337.50,323.00 L 337.50,322.00 L 337.50,321.00 L 337.50,320.00 L 337.50,319.00 L 337.50,318.00 L 337.50,317.00 L 337.50,316.00 L 337.50,315.00 L 337.50,314.00 L 337.50,313.00 L 337.50,312.00 L 337.50,311.00 L 337.50,310.00 L 337.50,309.00 L 337.50,308.00 L 337.50,307.00 L 337.50,306.00 L 337.50,305.00 L 337.50,304.00 L 337.50,303.00 L 337.50,302.00 L 337.50,301.00 L 337.50,300.00 L 337.50,299.00 L 337.50,298.00 L 337.50,297.00 L 337.50,296.00 L 337.50,295.00 L 337.50,294.00 L 337.50,293.00 L 337.50,292.00 L 337.50,291.00 L 337.50,290.00 L 337.50,289.00 L 337.50,288.00 L 337.50,287.00 L 337.50,286.00 L 337.50,285.00 L 337.50,284.00 L 337.50,283.00 L 337.50,282.00 L 337.50,281.00 L 337.50,280.00 L 337.50,279.00 L 337.50,278.00 L 337.50,277.00 L 337.50,276.00 L 337.50,275.00 L 337.50,274.00 L 337.50,273.00 L 337.50,272.00 L 337.50,271.00 L 337.50,270.00 L 337.50,269.00 L 337.50,268.00 L 337.50,267.00 L 337.50,266.00 L 337.50,265.00 L 337.50,264.00 L 337.50,263.00 L 337.50,262.00 L 337.50,261.00 L 337.50,260.00 L 337.50,259.00 L 337.50,258.00 L 337.50,257.00 L 337.50,256.00 L 337.50,255.00 L 337.50,254.00 L 337.50,253.00 L 337.50,252.00 L 337.50,251.00 L 337.50,250.00 L 337.50,249.00 L 337.50,248.00 L 337.50,247.00 L 337.50,246.00 L 337.50,245.00 L 337.50,244.00 L 337.50,243.00 L 337.50,242.00 L 337.50,241.00 L 337.50,240.00 L 337.50,239.00 L 337.50,238.00 L 337.50,237.00 L 337.50,236.00 L 337.50,235.00 L 337.50,234.00 L 337.50,233.00 L 337.50,232.00 L 337.50,231.00 L 337.50,230.00 L 337.50,229.00 L 337.50,228.00 L 337.50,227.00 L 337.50,226.00 L 337.50,225.00 L 337.50,224.00 L 337.50,223.00 L 337.50,222.00 L 337.50,221.00 L 337.50,220.00 L 337.50,219.00 L 337.50,218.00 L 337.50,217.00 L 337.50,216.00 L 337.50,215.00 L 337.50,214.00 L 337.50,213.00 L 337.50,212.00 L 337.50,211.00 L 337.50,210.00 L 337.50,209.00 L 337.50,208.00 L 337.50,207.00 L 337.50,206.00 L 337.50,205.00 L 337.50,204.00 L 337.50,203.00 L 337.50,202.00 L 337.50,201.00 L 337.50,200.00 L 337.50,199.00 L 337.50,198.00 L 337.50,197.00 L 337.50,196.00 L 337.50,195.00 L 337.50,194.00 L 337.50,193.00 L 337.50,192.00 L 337.50,191.00 L 337.50,190.00 L 337.50,189.00 L 337.50,188.00 L 337.50,187.00 L 337.50,186.00 L 337.50,185.00 L 337.50,184.00 L 337.50,183.00 L 337.50,182.00 L 337.50,181.00 L 337.50,180.00 L 337.50,179.00 L 337.50,178.00 L 337.50,177.00 L 337.50,176.00 L 337.50,175.00 L 337.50,174.00 L 337.50,173.00 L 337.50,172.00 L 337.50,171.00 L 337.50,170.00 L 337.50,169.00 L 337.50,168.00 L 337.50,167.00 L 337.50,166.00 L 337.50,165.00 L 337.50,164.00 L 337.50,163.00 L 337.50,162.00 L 337.50,161.00 L 337.50,160.00 L 337.50,159.00 L 337.50,158.00 L 337.50,157.00 L 337.50,156.00 L 337.50,155.00 L 337.50,154.00 L 337.50,153.00 L 337.50,152.00 L 337.50,151.00 L 337.50,150.00 L 337.50,149.00 L 337.50,148.00 L 337.50,147.00 L 337.50,146.00 L 337.50,145.00 L 337.50,144.00 L 337.50,143.00 L 337.50,142.00 L 337.50,141.00 L 337.50,140.00 L 337.50,139.00 L 337.50,138.00 L 337.50,137.00 L 337.50,136.00 L 337.50,135.00 L 337.50,134.00 L 337.50,133.00 L 337.50,132.00 L 337.50,131.00 L 337.50,130.00 L 337.50,129.00 L 337.50,128.00 L 337.50,127.00 L 337.50,126.00 L 337.50,125.00 L 337.50,124.00 L 337.50,123.00 L 337.50,122.00 L 337.50,121.00 L 337.50,120.00 L 337.50,119.00 L 337.50,118.00 L 337.50,117.00 L 337.50,116.00 L 337.50,115.00 L 337.50,114.00 L 337.50,113.00 L 337.50,112.00 L 337.50,111.00 L 337.50,110.00 L 337.50,109.00 L 337.50,108.00 L 337.50,107.00 L 337.00,106.50 L 336.50,107.00 L 336.00,107.50 L 335.50,108.00 L 335.00,108.50 L 334.50,109.00 L 334.00,109.50 L 333.50,110.00 L 333.00,110.50 L 332.50,111.00 L 332.00,111.50 L 331.50,112.00 L 331.00,112.50 L 330.50,113.00 L 330.00,113.50 L 329.50,114.00 L 329.00,114.50 L 328.50,115.00 L 328.00,115.50 L 327.50,116.00 L 327.00,116.50 L 326.50,117.00 L 326.00,117.50 L 325.50,118.00 L 325.00,118.50 L 324.50,119.00 L 324.00,119.50 L 323.50,120.00 L 323.00,120.50 L 322.50,121.00 L 322.00,121.50 L 321.50,122.00 L 321.00,122.50 L 320.50,123.00 L 320.00,123.50 L 319.50,124.00 L 319.00,124.50 L 318.50,125.00 L 318.00,125.50 L 317.50,126.00 L 317.00,126.50 L 316.50,127.00 L 316.00,127.50 L 315.50,128.00 L 315.00,128.50 L 314.50,129.00 L 314.00,129.50 L 313.50,130.00 L 313.00,130.50 L 312.50,131.00 L 312.00,131.50 L 311.50,132.00 L 311.00,132.50 L 310.50,133.00 L 310.00,133.50 L 309.50,134.00 L 309.00,134.50 L 308.50,135.00 L 308.00,135.50 L 307.50,136.00 L 307.00,136.50 L 306.50,137.00 L 306.00,137.50 L 305.50,138.00 L 305.00,138.50 L 304.50,139.00 L 304.00,139.50 L 303.50,140.00 L 303.50,141.00 L 303.00,141.50 L 302.50,142.00 L 302.00,142.50 L 301.50,143.00 L 301.00,143.50 L 300.50,144.00 L 300.00,144.50 L 299.50,145.00 L 299.00,145.50 L 298.50,146.00 L 298.00,146.50 L 297.50,147.00 L 297.00,147.50 L 296.50,148.00 L 296.00,148.50 L 295.50,149.00 L 295.00,149.50 L 294.50,150.00 L 294.00,150.50 L 293.50,151.00 L 293.00,151.50 L 292.50,152.00 L 292.00,152.50 L 291.50,153.00 L 291.00,153.50 L 290.50,154.00 L 290.00,154.50 L 289.50,155.00 L 289.00,155.50 L 288.50,156.00 L 288.00,156.50 L 287.50,157.00 L 287.00,157.50 L 286.50,158.00 L 286.00,158.50 L 285.50,159.00 L 285.00,159.50 L 284.50,160.00 L 284.00,160.50 L 283.50,161.00 L 283.00,161.50 L 282.50,162.00 L 282.00,162.50 L 281.50,163.00 L 281.00,163.50 L 280.50,164.00 L 280.00,164.50 L 279.50,165.00 L 279.00,165.50 L 278.50,166.00 L 278.00,166.50 L 277.50,167.00 L 277.00,167.50 L 276.50,168.00 L 276.00,168.50 L 275.50,169.00 L 275.00,169.50 L 274.50,170.00 L 274.00,170.50 L 273.50,171.00 L 273.00,171.50 L 272.50,172.00 L 272.00,172.50 L 271.50,173.00 L 271.00,173.50 L 270.50,174.00 L 270.00,174.50 L 269.50,175.00 L 269.00,175.50 L 268.50,176.00 L 268.00,176.50 L 267.50,177.00 L 267.00,177.50 L 266.50,178.00 L 266.00,178.50 L 265.50,179.00 L 265.00,179.50 L 264.50,180.00 L 264.00,180.50 L 263.50,181.00 L 263.00,181.50 L 262.50,182.00 L 262.00,182.50 L 261.50,183.00 L 261.00,183.50 L 260.50,184.00 L 260.00,184.50 L 259.50,185.00 L 259.00,185.50 L 258.50,186.00 L 258.00,186.50 L 257.50,187.00 L 257.00,187.50 L 256.50,188.00 L 256.00,188.50 L 255.50,189.00 L 255.00,189.50 L 254.50,190.00 L 254.00,190.50 L 253.50,191.00 L 253.00,191.50 L 252.50,192.00 L 252.00,192.50 L 251.50,193.00 L 251.00,193.50 L 250.50,194.00 L 250.00,194.50 L 249.50,195.00 L 249.00,195.50 L 248.50,196.00 L 248.00,196.50 L 247.50,197.00 L 247.00,197.50 L 246.50,198.00 L 246.00,198.50 L 245.50,199.00 L 245.00,199.50 L 244.50,200.00 L 244.00,200.50 L 243.50,201.00 L 243.00,201.50 L 242.50,202.00 L 242.00,202.50 L 241.50,203.00 L 241.00,203.50 L 240.50,204.00 L 240.00,204.50 L 239.50,205.00 L 239.00,205.50 L 238.50,206.00 L 238.00,206.50 L 237.50,207.00 L 237.00,207.50 L 236.50,208.00 L 236.00,208.50 L 235.50,209.00 L 235.00,209.50 L 234.50,210.00 L 234.00,210.50 L 233.50,211.00 L 233.00,211.50 L 232.50,212.00 L 232.00,212.50 L 231.50,213.00 L 231.00,213.50 L 230.50,214.00 L 230.00,214.50 L 229.50,215.00 L 229.00,215.50 L 228.50,216.00 L 228.00,216.50 L 227.50,217.00 L 227.00,217.50 L 226.50,218.00 L 226.00,218.50 L 225.50,219.00 L 225.00,219.50 L 224.50,220.00 L 224.00,220.50 L 223.50,221.00 L 223.00,221.50 L 222.50,222.00 L 222.00,222.50 L 221.50,223.00 L 221.00,223.50 L 220.50,224.00 L 220.00,224.50 L 219.50,225.00 L 219.00,225.50 L 218.50,226.00 L 218.00,226.50 L 217.50,227.00 L 217.00,227.50 L 216.50,228.00 L 216.00,228.50 L 215.50,229.00 L 215.00,229.50 L 214.50,230.00 L 214.00,230.50 L 213.50,231.00 L 213.00,231.50 L 212.50,232.00 L 212.00,232.50 L 211.50,233.00 L 211.00,233.50 L 210.50,234.00 L 210.00,234.50 L 209.50,235.00 L 209.00,235.50 L 208.50,236.00 L 208.00,236.50 L 207.50,237.00 L 207.00,237.50 L 206.50,238.00 L 206.00,238.50 L 205.50,239.00 L 205.00,239.50 L 204.50,240.00 L 204.00,240.50 L 203.50,241.00 L 203.00,241.50 L 202.50,242.00 L 202.00,242.50 L 201.50,243.00 L 201.00,243.50 L 200.50,244.00 L 200.00,244.50 L 199.50,245.00 L 199.00,245.50 L 198.50,246.00 L 198.00,246.50 L 197.50,247.00 L 197.00,247.50 L 196.50,248.00 L 196.00,248.50 L 195.50,249.00 L 195.00,249.50 L 194.50,250.00 L 194.00,250.50 L 193.50,251.00 L 193.00,251.50 L 192.50,252.00 L 192.00,252.50 L 191.50,253.00 L 191.00,253.50 L 190.50,254.00 L 190.00,254.50 L 189.50,255.00 L 189.00,255.50 L 188.50,256.00 L 188.00,256.50 L 187.50,257.00 L 187.00,257.50 L 186.50,258.00 L 186.00,258.50 L 185.50,259.00 L 185.00,259.50 L 184.50,260.00 L 184.00,260.50 L 183.50,261.00 L 183.00,261.50 L 182.50,262.00 L 182.00,262.50 L 181.50,263.00 L 181.00,263.50 L 180.50,264.00 L 180.00,264.50 L 179.50,265.00 L 179.00,265.50 L 178.50,266.00 L 178.00,266.50 L 177.50,267.00 L 177.00,267.50 L 176.50,268.00 L 176.00,268.50 L 175.50,269.00 L 175.00,269.50 L 174.50,270.00 L 174.00,270.50 L 173.50,271.00 L 173.00,271.50 L 172.50,272.00 L 172.00,272.50 L 171.50,273.00 L 171.00,273.50 L 170.50,274.00 L 170.00,274.50 L 169.50,275.00 L 169.00,275.50 L 168.50,276.00 L 168.00,276.50 L 167.50,277.00 L 167.00,277.50 L 166.50,278.00 L 166.00,278.50 L 165.50,279.00 L 165.00,279.50 L 164.50,280.00 L 164.00,280.50 L 163.50,281.00 L 163.00,281.50 L 162.50,282.00 L 162.00,282.50 L 161.50,283.00 L 161.00,283.50 L 160.50,284.00 L 160.00,284.50 L 159.50,285.00 L 159.00,285.50 L 158.50,286.00 L 158.00,286.50 L 157.50,287.00 L 157.00,287.50 L 156.50,288.00 L 156.00,288.50 L 155.50,289.00 L 155.00,289.50 L 154.50,290.00 L 154.00,290.50 L 153.50,291.00 L 153.00,291.50 L 152.50,292.00 L 152.00,292.50 L 151.50,293.00 L 151.00,293.50 L 150.00,293.50 L 149.50,294.00 L 149.00,294.50 L 148.50,295.00 L 148.00,295.50 L 147.00,295.50 L 146.50,296.00 L 146.00,296.50 L 145.00,296.50 L 144.00,296.50 L 143.50,297.00 L 143.00,297.50 L 142.00,297.50 L 141.00,297.50 L 140.50,298.00 L 140.00,298.50 L 139.00,298.50 L 138.00,298.50 L 137.00,298.50 L 136.00,298.50 L 135.00,298.50 L 134.00,298.50 L 133.00,298.50 L 132.00,298.50 L 131.00,298.50 L 130.00,298.50 L 129.00,298.50 L 128.00,298.50 L 127.00,298.50 L 126.00,298.50 L 125.50,298.00 L 125.00,297.50 L 124.00,297.50 L 123.00,297.50 L 122.50,297.00 L 122.00,296.50 L 121.00,296.50 L 120.50,296.00 L 120.00,295.50 L 119.00,295.50 L 118.00,295.50 L 117.50,295.00 L 117.00,294.50 L 116.50,294.00 L 116.00,293.50 L 115.00,293.50 L 114.50,293.00 L 114.00,292.50 L 113.50,292.00 L 113.00,291.50 L 112.50,291.00 L 112.00,290.50 L 111.50,290.00 L 111.00,289.50 L 110.50,289.00 L 110.00,288.50 L 109.50,288.00 L 109.00,287.50 L 108.50,287.00 L 108.50,286.00 L 108.00,285.50 L 107.50,285.00 L 107.00,284.50 L 106.50,284.00 L 106.50,283.00 L 106.00,282.50 L 105.50,282.00 L 105.50,281.00 L 105.00,280.50 L 104.50,280.00 L 104.50,279.00 L 104.50,278.00 L 104.00,277.50 L 103.50,277.00 L 103.50,276.00 L 103.50,275.00 L 103.00,274.50 L 102.50,274.00 L 102.50,273.00 L 102.50,272.00 L 102.50,271.00 L 102.50,270.00 L 102.50,269.00 L 102.50,268.00 L 102.50,267.00 L 102.50,266.00 L 102.50,265.00 L 102.50,264.00 L 102.50,263.00 L 103.00,262.50 L 103.50,262.00 L 103.50,261.00 L 103.50,260.00 L 103.50,259.00 L 104.00,258.50 L 104.50,258.00 L 104.50,257.00 L 104.50,256.00 L 105.00,255.50 L 105.50,255.00 L 105.50,254.00 L 106.00,253.50 L 106.50,253.00 L 106.50,252.00 L 107.00,251.50 L 107.50,251.00 L 108.00,250.50 L 108.50,250.00 L 108.50,249.00 L 109.00,248.50 L 109.50,248.00 L 110.00,247.50 L 110.50,247.00 L 111.00,246.50 L 111.50,246.00 L 112.00,245.50 L 112.50,245.00 L 113.00,244.50 L 113.50,244.00 L 114.00,243.50 L 114.50,243.00 L 115.00,242.50 L 115.50,242.00 L 116.00,241.50 L 116.50,241.00 L 117.00,240.50 L 117.50,240.00 L 118.00,239.50 L 118.50,239.00 L 119.00,238.50 L 119.50,238.00 L 120.00,237.50 L 120.50,237.00 L 121.00,236.50 L 121.50,236.00 L 122.00,235.50 L 122.50,235.00 L 123.00,234.50 L 123.50,234.00 L 124.00,233.50 L 124.50,233.00 L 125.00,232.50 L 125.50,232.00 L 126.00,231.50 L 126.50,231.00 L 127.00,230.50 L 127.50,230.00 L 128.00,229.50 L 128.50,229.00 L 129.00,228.50 L 129.50,228.00 L 130.00,227.50 L 130.50,227.00 L 131.00,226.50 L 131.50,226.00 L 132.00,225.50 L 132.50,225.00 L 133.00,224.50 L 133.50,224.00 L 134.00,223.50 L 134.50,223.00 L 135.00,222.50 L 135.50,222.00 L 136.00,221.50 L 136.50,221.00 L 137.00,220.50 L 137.50,220.00 L 138.00,219.50 L 138.50,219.00 L 139.00,218.50 L 139.50,218.00 L 140.00,217.50 L 140.50,217.00 L 141.00,216.50 L 141.50,216.00 L 142.00,215.50 L 142.50,215.00 L 143.00,214.50 L 143.50,214.00 L 144.00,213.50 L 144.50,213.00 L 145.00,212.50 L 145.50,212.00 L 146.00,211.50 L 146.50,211.00 L 147.00,210.50 L 147.50,210.00 L 148.00,209.50 L 148.50,209.00 L 149.00,208.50 L 149.50,208.00 L 150.00,207.50 L 150.50,207.00 L 151.00,206.50 L 151.50,206.00 L 152.00,205.50 L 152.50,205.00 L 153.00,204.50 L 153.50,204.00 L 154.00,203.50 L 154.50,203.00 L 155.00,202.50 L 155.50,202.00 L 156.00,201.50 L 156.50,201.00 L 157.00,200.50 L 157.50,200.00 L 158.00,199.50 L 158.50,199.00 L 159.00,198.50 L 159.50,198.00 L 160.00,197.50 L 160.50,197.00 L 161.00,196.50 L 161.50,196.00 L 162.00,195.50 L 162.50,195.00 L 163.00,194.50 L 163.50,194.00 L 164.00,193.50 L 164.50,193.00 L 165.00,192.50 L 165.50,192.00 L 166.00,191.50 L 166.50,191.00 L 167.00,190.50 L 167.50,190.00 L 168.00,189.50 L 168.50,189.00 L 169.00,188.50 L 169.50,188.00 L 170.00,187.50 L 170.50,187.00 L 171.00,186.50 L 171.50,186.00 L 172.00,185.50 L 172.50,185.00 L 173.00,184.50 L 173.50,184.00 L 174.00,183.50 L 174.50,183.00 L 175.00,182.50 L 175.50,182.00 L 176.00,181.50 L 176.50,181.00 L 177.00,180.50 L 177.50,180.00 L 178.00,179.50 L 178.50,179.00 L 179.00,178.50 L 179.50,178.00 L 180.00,177.50 L 180.50,177.00 L 181.00,176.50 L 181.50,176.00 L 182.00,175.50 L 182.50,175.00 L 183.00,174.50 L 183.50,174.00 L 184.00,173.50 L 184.50,173.00 L 185.00,172.50 L 185.50,172.00 L 186.00,171.50 L 186.50,171.00 L 187.00,170.50 L 187.50,170.00 L 188.00,169.50 L 188.50,169.00 L 189.00,168.50 L 189.50,168.00 L 190.00,167.50 L 190.50,167.00 L 191.00,166.50 L 191.50,166.00 L 192.00,165.50 L 192.50,165.00 L 193.00,164.50 L 193.50,164.00 L 194.00,163.50 L 194.50,163.00 L 195.00,162.50 L 195.50,162.00 L 196.00,161.50 L 196.50,161.00 L 197.00,160.50 L 197.50,160.00 L 198.00,159.50 L 198.50,159.00 L 199.00,158.50 L 199.50,158.00 L 200.00,157.50 L 200.50,157.00 L 200.50,156.00 L 201.00,155.50 L 201.50,155.00 L 202.00,154.50 L 202.50,154.00 L 203.00,153.50 L 203.50,153.00 L 204.00,152.50 L 204.50,152.00 L 205.00,151.50 L 205.50,151.00 L 206.00,150.50 L 206.50,150.00 L 207.00,149.50 L 207.50,149.00 L 208.00,148.50 L 208.50,148.00 L 209.00,147.50 L 209.50,147.00 L 210.00,146.50 L 210.50,146.00 L 211.00,145.50 L 211.50,145.00 L 212.00,144.50 L 212.50,144.00 L 213.00,143.50 L 213.50,143.00 L 214.00,142.50 L 214.50,142.00 L 215.00,141.50 L 215.50,141.00 L 216.00,140.50 L 216.50,140.00 L 217.00,139.50 L 217.50,139.00 L 218.00,138.50 L 218.50,138.00 L 219.00,137.50 L 219.50,137.00 L 220.00,136.50 L 220.50,136.00 L 221.00,135.50 L 221.50,135.00 L 222.00,134.50 L 222.50,134.00 L 223.00,133.50 L 223.50,133.00 L 224.00,132.50 L 224.50,132.00 L 225.00,131.50 L 225.50,131.00 L 226.00,130.50 L 226.50,130.00 L 227.00,129.50 L 227.50,129.00 L 228.00,128.50 L 228.50,128.00 L 229.00,127.50 L 229.50,127.00 L 230.00,126.50 L 230.50,126.00 L 231.00,125.50 L 231.50,125.00 L 232.00,124.50 L 232.50,124.00 L 233.00,123.50 L 233.50,123.00 L 234.00,122.50 L 234.50,122.00 L 235.00,121.50 L 235.50,121.00 L 236.00,120.50 L 236.50,120.00 L 237.00,119.50 L 237.50,119.00 L 238.00,118.50 L 238.50,118.00 L 239.00,117.50 L 239.50,117.00 L 240.00,116.50 L 240.50,116.00 L 241.00,115.50 L 241.50,115.00 L 242.00,114.50 L 242.50,114.00 L 243.00,113.50 L 243.50,113.00 L 244.00,112.50 L 244.50,112.00 L 245.00,111.50 L 245.50,111.00 L 246.00,110.50 L 246.50,110.00 L 247.00,109.50 L 247.50,109.00 L 248.00,108.50 L 248.50,108.00 L 249.00,107.50 L 249.50,107.00 L 250.00,106.50 L 250.50,106.00 L 251.00,105.50 L 251.50,105.00 L 252.00,104.50 L 252.50,104.00 L 253.00,103.50 L 253.50,103.00 L 254.00,102.50 L 254.50,102.00 L 255.00,101.50 L 255.50,101.00 L 256.00,100.50 L 256.50,100.00 L 257.00,99.50 L 257.50,99.00 L 258.00,98.50 L 258.50,98.00 L 259.00,97.50 L 259.50,97.00 L 260.00,96.50 L 260.50,96.00 L 261.00,95.50 L 261.50,95.00 L 262.00,94.50 L 262.50,94.00 L 263.00,93.50 L 263.50,93.00 L 264.00,92.50 L 264.50,92.00 L 265.00,91.50 L 265.50,91.00 L 266.00,90.50 L 266.50,90.00 L 267.00,89.50 L 267.50,89.00 L 268.00,88.50 L 268.50,88.00 L 269.00,87.50 L 269.50,87.00 L 270.00,86.50 L 270.50,86.00 L 271.00,85.50 L 271.50,85.00 L 272.00,84.50 L 272.50,84.00 L 273.00,83.50 L 273.50,83.00 L 274.00,82.50 L 274.50,82.00 L 275.00,81.50 L 275.50,81.00 L 276.00,80.50 L 276.50,80.00 L 277.00,79.50 L 277.50,79.00 L 278.00,78.50 L 278.50,78.00 L 279.00,77.50 L 279.50,77.00 L 280.00,76.50 L 280.50,76.00 L 281.00,75.50 L 281.50,75.00 L 282.00,74.50 L 282.50,74.00 L 283.00,73.50 L 283.50,73.00 L 284.00,72.50 L 284.50,72.00 L 285.00,71.50 L 285.50,71.00 L 286.00,70.50 L 286.50,70.00 L 287.00,69.50 L 287.50,69.00 L 288.00,68.50 L 288.50,68.00 L 289.00,67.50 L 289.50,67.00 L 290.00,66.50 L 290.50,66.00 L 291.00,65.50 L 291.50,65.00 L 292.00,64.50 L 292.50,64.00 L 293.00,63.50 L 293.50,63.00 L 294.00,62.50 L 294.50,62.00 L 295.00,61.50 L 295.50,61.00 L 296.00,60.50 L 296.50,60.00 L 297.00,59.50 L 297.50,59.00 L 298.00,58.50 L 298.50,58.00 L 299.00,57.50 L 299.50,57.00 L 300.00,56.50 L 300.50,56.00 L 301.00,55.50 L 301.50,55.00 L 302.00,54.50 L 302.50,54.00 L 303.00,53.50 L 303.50,53.00 L 304.00,52.50 L 304.50,52.00 L 305.00,51.50 L 305.50,51.00 L 306.00,50.50 L 306.50,50.00 L 307.00,49.50 L 307.50,49.00 L 308.00,48.50 L 308.50,48.00 L 309.00,47.50 L 309.50,47.00 L 310.00,46.50 L 310.50,46.00 L 311.00,45.50 L 311.50,45.00 L 312.00,44.50 L 312.50,44.00 L 313.00,43.50 L 313.50,43.00 L 314.00,42.50 L 314.50,42.00 L 315.00,41.50 L 315.50,41.00 L 316.00,40.50 L 316.50,40.00 L 317.00,39.50 L 317.50,39.00 L 318.00,38.50 L 318.50,38.00 L 319.00,37.50 L 319.50,37.00 L 320.00,36.50 L 320.50,36.00 L 321.00,35.50 L 321.50,35.00 L 322.00,34.50 L 322.50,34.00 L 323.00,33.50 L 323.50,33.00 L 324.00,32.50 L 324.50,32.00 L 325.00,31.50 L 325.50,31.00 L 326.00,30.50 L 326.50,30.00 L 327.00,29.50 L 327.50,29.00 L 328.00,28.50 L 328.50,28.00 L 329.00,27.50 L 329.50,27.00 L 330.00,26.50 L 330.50,26.00 L 331.00,25.50 L 331.50,25.00 L 332.00,24.50 L 332.50,24.00 L 333.00,23.50 L 333.50,23.00 L 334.00,22.50 L 334.50,22.00 L 335.00,21.50 L 335.50,21.00 L 336.00,20.50 L 336.50,20.00 L 337.00,19.50 L 337.50,19.00 L 338.00,18.50 L 338.50,18.00 L 339.00,17.50 L 339.50,17.00 L 340.00,16.50 L 340.50,16.00 L 341.00,15.50 L 341.50,15.00 L 342.00,14.50 L 342.50,14.00 L 343.00,13.50 L 343.50,13.00 L 344.00,12.50 L 344.50,12.00 L 345.00,11.50 L 345.50,11.00 L 346.00,10.50 L 346.50,10.00 L 347.00,9.50 L 347.50,9.00 L 348.00,8.50 L 348.50,8.00 L 349.00,7.50 L 349.50,7.00 L 350.00,6.50 L 351.00,6.50 L 351.50,6.00 L 352.00,5.50 L 352.50,5.00 L 353.00,4.50 L 354.00,4.50 L 354.50,4.00 L 355.00,3.50 L 356.00,3.50 L 357.00,3.50 L 357.50,3.00 L 358.00,2.50 L 359.00,2.50 L 360.00,2.50 L 360.50,2.00 L 361.00,1.50 L 362.00,1.50 L 363.00,1.50 L 364.00,1.50 L 365.00,1.50 L 366.00,1.50 L 367.00,1.50 L 368.00,1.50 L 369.00,1.50 L 370.00,1.50 L 371.00,1.50 L 372.00,1.50 L 373.00,1.50 L 374.00,1.50 L 375.00,1.50 L 375.50,2.00 L 376.00,2.50 L 377.00,2.50 L 378.00,2.50 L 378.50,3.00 L 379.00,3.50 L 380.00,3.50 L 381.00,3.50 L 381.50,4.00 L 382.00,4.50 L 383.00,4.50 L 383.50,5.00 L 384.00,5.50 L 385.00,5.50 L 385.50,6.00 L 386.00,6.50 L 386.50,7.00 L 387.00,7.50 L 387.50,8.00 L 388.00,8.50 L 388.50,9.00 L 389.00,9.50 L 390.00,9.50 L 390.50,10.00 L 390.50,11.00 L 391.00,11.50 L 391.50,12.00 L 392.00,12.50 L 392.50,13.00 L 393.00,13.50 L 393.50,14.00 L 394.00,14.50 L 394.50,15.00 L 394.50,16.00 L 395.00,16.50 L 395.50,17.00 L 395.50,18.00 L 396.00,18.50 L 396.50,19.00 L 396.50,20.00 L 397.00,20.50 Z" fill="black"/>
	<path d="M 0.00,87.50 L 0.50,87.00 L 0.50,86.00 L 0.50,85.00 L 1.00,84.50 L 1.50,84.00 L 1.50,83.00 L 2.00,82.50 L 2.50,82.00 L 3.00,81.50 L 3.50,81.00 L 3.50,80.00 L 4.00,79.50 L 4.50,79.00 L 5.00,78.50 L 5.50,78.00 L 6.00,77.50 L 6.50,77.00 L 6.50,76.00 L 7.00,75.50 L 7.50,75.00 L 8.00,74.50 L 9.00,74.50 L 9.50,74.00 L 10.00,73.50 L 10.50,73.00 L 11.00,72.50 L 11.50,72.00 L 12.00,71.50 L 13.00,71.50 L 13.50,71.00 L 14.00,70.50 L 15.00,70.50 L 15.50,70.00 L 16.00,69.50 L 17.00,69.50 L 17.50,69.00 L 18.00,68.50 L 19.00,68.50 L 20.00,68.50 L 20.50,68.00 L 21.00,67.50 L 22.00,67.50 L 23.00,67.50 L 24.00,67.50 L 25.00,67.50 L 25.50,67.00 L 26.00,66.50 L 27.00,66.50 L 28.00,66.50 L 29.00,66.50 L 30.00,66.50 L 31.00,66.50 L 32.00,66.50 L 32.50,67.00 L 33.00,67.50 L 34.00,67.50 L 35.00,67.50 L 36.00,67.50 L 37.00,67.50 L 37.50,68.00 L 38.00,68.50 L 39.00,68.50 L 40.00,68.50 L 40.50,69.00 L 41.00,69.50 L 42.00,69.50 L 42.50,70.00 L 43.00,70.50 L 44.00,70.50 L 44.50,71.00 L 45.00,71.50 L 46.00,71.50 L 46.50,72.00 L 47.00,72.50 L 47.50,73.00 L 48.00,73.50 L 48.50,74.00 L 49.00,74.50 L 50.00,74.50 L 50.50,75.00 L 51.00,75.50 L 51.50,76.00 L 52.00,76.50 L 52.50,77.00 L 53.00,77.50 L 53.50,78.00 L 54.00,78.50 L 54.50,79.00 L 55.00,79.50 L 55.50,80.00 L 56.00,80.50 L 56.50,81.00 L 57.00,81.50 L 57.50,82.00 L 58.00,82.50 L 58.50,83.00 L 59.00,83.50 L 59.50,84.00 L 60.00,84.50 L 60.50,85.00 L 61.00,85.50 L 61.50,86.00 L 62.00,86.50 L 62.50,87.00 L 63.00,87.50 L 63.50,88.00 L 64.00,88.50 L 64.50,89.00 L 65.00,89.50 L 65.50,90.00 L 66.00,90.50 L 66.50,91.00 L 67.00,91.50 L 67.50,92.00 L 68.00,92.50 L 68.50,93.00 L 69.00,93.50 L 69.50,94.00 L 70.00,94.50 L 70.50,95.00 L 71.00,95.50 L 71.50,96.00 L 72.00,96.50 L 72.50,97.00 L 73.00,97.50 L 73.50,98.00 L 74.00,98.50 L 74.50,99.00 L 75.00,99.50 L 75.50,100.00 L 76.00,100.50 L 76.50,101.00 L 77.00,101.50 L 77.50,102.00 L 78.00,102.50 L 78.50,103.00 L 79.00,103.50 L 79.50,104.00 L 80.00,104.50 L 80.50,105.00 L 81.00,105.50 L 81.50,106.00 L 82.00,106.50 L 82.50,107.00 L 83.00,107.50 L 83.50,108.00 L 84.00,108.50 L 84.50,109.00 L 85.00,109.50 L 85.50,110.00 L 86.00,110.50 L 86.50,111.00 L 87.00,111.50 L 87.50,112.00 L 88.00,112.50 L 88.50,113.00 L 89.00,113.50 L 89.50,114.00 L 90.00,114.50 L 90.50,115.00 L 91.00,115.50 L 91.50,116.00 L 92.00,116.50 L 92.50,117.00 L 93.00,117.50 L 93.50,118.00 L 94.00,118.50 L 94.50,119.00 L 95.00,119.50 L 95.50,120.00 L 96.00,120.50 L 96.50,121.00 L 97.00,121.50 L 97.50,122.00 L 98.00,122.50 L 98.50,123.00 L 99.00,123.50 L 99.50,124.00 L 100.00,124.50 L 100.50,125.00 L 101.00,125.50 L 101.50,126.00 L 102.00,126.50 L 102.50,127.00 L 103.00,127.50 L 103.50,128.00 L 104.00,128.50 L 104.50,129.00 L 105.00,129.50 L 105.50,130.00 L 106.00,130.50 L 106.50,131.00 L 107.00,131.50 L 107.50,132.00 L 108.00,132.50 L 108.50,133.00 L 109.00,133.50 L 109.50,134.00 L 110.00,134.50 L 110.50,135.00 L 111.00,135.50 L 111.50,136.00 L 112.00,136.50 L 112.50,137.00 L 113.00,137.50 L 113.50,138.00 L 114.00,138.50 L 114.50,139.00 L 115.00,139.50 L 115.50,140.00 L 115.50,141.00 L 116.00,141.50 L 116.50,142.00 L 117.00,142.50 L 117.50,143.00 L 117.50,144.00 L 118.00,144.50 L 118.50,145.00 L 119.00,145.50 L 119.50,146.00 L 119.50,147.00 L 120.00,147.50 L 120.50,148.00 L 120.50,149.00 L 120.50,150.00 L 121.00,150.50 L 121.50,151.00 L 121.50,152.00 L 121.50,153.00 L 122.00,153.50 L 122.50,154.00 L 122.50,155.00 L 122.50,156.00 L 122.50,157.00 L 122.50,158.00 L 122.50,159.00 L 122.50,160.00 L 122.50,161.00 L 122.50,162.00 L 122.50,163.00 L 122.50,164.00 L 122.50,165.00 L 122.50,166.00 L 122.50,167.00 L 122.00,167.50 L 121.50,168.00 L 121.50,169.00 L 121.50,170.00 L 121.50,171.00 L 121.00,171.50 L 120.50,172.00 L 120.50,173.00 L 120.00,173.50 L 119.50,174.00 L 119.50,175.00 L 119.00,175.50 L 118.50,176.00 L 118.50,177.00 L 118.00,177.50 L 117.50,178.00 L 117.00,178.50 L 116.50,179.00 L 116.50,180.00 L 116.00,180.50 L 115.50,181.00 L 115.00,181.50 L 114.50,182.00 L 114.00,182.50 L 113.50,183.00 L 113.00,183.50 L 112.50,184.00 L 112.00,184.50 L 111.00,184.50 L 110.50,185.00 L 110.00,185.50 L 109.50,186.00 L 109.00,186.50 L 108.50,187.00 L 108.00,187.50 L 107.00,187.50 L 106.50,188.00 L 106.00,188.50 L 105.00,188.50 L 104.50,189.00 L 104.00,189.50 L 103.00,189.50 L 102.00,189.50 L 101.50,190.00 L 101.00,190.50 L 100.00,190.50 L 99.00,190.50 L 98.00,190.50 L 97.00,190.50 L 96.50,191.00 L 96.00,191.50 L 95.00,191.50 L 94.00,191.50 L 93.00,191.50 L 92.00,191.50 L 91.00,191.50 L 90.00,191.50 L 89.00,191.50 L 88.00,191.50 L 87.50,191.00 L 87.00,190.50 L 86.00,190.50 L 85.00,190.50 L 84.00,190.50 L 83.00,190.50 L 82.50,190.00 L 82.00,189.50 L 81.00,189.50 L 80.50,189.00 L 80.00,188.50 L 79.00,188.50 L 78.50,188.00 L 78.00,187.50 L 77.00,187.50 L 76.50,187.00 L 76.00,186.50 L 75.00,186.50 L 74.50,186.00 L 74.00,185.50 L 73.50,185.00 L 73.00,184.50 L 72.00,184.50 L 71.50,184.00 L 71.00,183.50 L 70.50,183.00 L 70.00,182.50 L 69.50,182.00 L 69.00,181.50 L 68.50,181.00 L 68.00,180.50 L 67.50,180.00 L 67.00,179.50 L 66.50,179.00 L 66.00,178.50 L 65.50,178.00 L 65.00,177.50 L 64.50,177.00 L 64.00,176.50 L 63.50,176.00 L 63.00,175.50 L 62.50,175.00 L 62.00,174.50 L 61.50,174.00 L 61.00,173.50 L 60.50,173.00 L 60.00,172.50 L 59.50,173.00 L 59.50,174.00 L 59.50,175.00 L 59.50,176.00 L 59.50,177.00 L 59.50,178.00 L 59.50,179.00 L 59.50,180.00 L 59.50,181.00 L 59.50,182.00 L 59.50,183.00 L 59.50,184.00 L 59.50,185.00 L 59.50,186.00 L 59.50,187.00 L 59.50,188.00 L 59.50,189.00 L 59.50,190.00 L 59.50,191.00 L 59.50,192.00 L 59.50,193.00 L 59.50,194.00 L 59.50,195.00 L 59.50,196.00 L 59.50,197.00 L 59.50,198.00 L 59.50,199.00 L 59.50,200.00 L 59.50,201.00 L 59.50,202.00 L 59.50,203.00 L 59.50,204.00 L 59.50,205.00 L 59.50,206.00 L 59.50,207.00 L 59.50,208.00 L 59.50,209.00 L 59.50,210.00 L 59.50,211.00 L 59.50,212.00 L 59.50,213.00 L 59.50,214.00 L 59.50,215.00 L 59.50,216.00 L 59.50,217.00 L 59.50,218.00 L 59.50,219.00 L 59.50,220.00 L 59.50,221.00 L 59.50,222.00 L 59.50,223.00 L 59.50,224.00 L 59.50,225.00 L 59.50,226.00 L 59.50,227.00 L 59.50,228.00 L 59.50,229.00 L 59.50,230.00 L 59.50,231.00 L 59.50,232.00 L 59.50,233.00 L 59.50,234.00 L 59.50,235.00 L 59.50,236.00 L 59.50,237.00 L 59.50,238.00 L 59.50,239.00 L 59.50,240.00 L 59.50,241.00 L 59.50,242.00 L 59.50,243.00 L 59.50,244.00 L 59.50,245.00 L 59.50,246.00 L 59.50,247.00 L 59.50,248.00 L 59.50,249.00 L 59.50,250.00 L 59.50,251.00 L 59.50,252.00 L 59.50,253.00 L 59.50,254.00 L 59.50,255.00 L 59.50,256.00 L 59.50,257.00 L 59.50,258.00 L 59.50,259.00 L 59.50,260.00 L 59.50,261.00 L 59.50,262.00 L 59.50,263.00 L 59.50,264.00 L 59.50,265.00 L 59.50,266.00 L 59.50,267.00 L 59.50,268.00 L 59.50,269.00 L 59.50,270.00 L 59.50,271.00 L 59.50,272.00 L 59.50,273.00 L 59.50,274.00 L 59.50,275.00 L 59.50,276.00 L 59.50,277.00 L 59.50,278.00 L 59.50,279.00 L 59.50,280.00 L 59.50,281.00 L 59.50,282.00 L 59.50,283.00 L 59.50,284.00 L 59.50,285.00 L 59.50,286.00 L 59.50,287.00 L 59.50,288.00 L 59.50,289.00 L 59.50,290.00 L 59.50,291.00 L 59.50,292.00 L 59.50,293.00 L 59.50,294.00 L 59.50,295.00 L 59.50,296.00 L 59.50,297.00 L 59.50,298.00 L 59.50,299.00 L 59.50,300.00 L 59.50,301.00 L 59.50,302.00 L 59.50,303.00 L 59.50,304.00 L 59.50,305.00 L 59.50,306.00 L 59.50,307.00 L 59.50,308.00 L 59.50,309.00 L 59.50,310.00 L 59.50,311.00 L 59.50,312.00 L 59.50,313.00 L 59.50,314.00 L 59.50,315.00 L 59.50,316.00 L 59.50,317.00 L 59.50,318.00 L 59.50,319.00 L 59.50,320.00 L 59.50,321.00 L 59.50,322.00 L 59.50,323.00 L 59.50,324.00 L 59.50,325.00 L 59.50,326.00 L 59.50,327.00 L 59.50,328.00 L 59.50,329.00 L 59.50,330.00 L 59.50,331.00 L 59.50,332.00 L 59.50,333.00 L 59.50,334.00 L 59.50,335.00 L 59.50,336.00 L 59.50,337.00 L 59.50,338.00 L 59.50,339.00 L 59.50,340.00 L 59.50,341.00 L 59.50,342.00 L 59.50,343.00 L 59.50,344.00 L 59.50,345.00 L 59.50,346.00 L 59.50,347.00 L 59.50,348.00 L 59.50,349.00 L 59.50,350.00 L 59.50,351.00 L 59.50,352.00 L 59.50,353.00 L 59.50,354.00 L 59.50,355.00 L 59.50,356.00 L 59.50,357.00 L 59.50,358.00 L 59.50,359.00 L 59.50,360.00 L 59.50,361.00 L 59.50,362.00 L 59.50,363.00 L 59.50,364.00 L 59.50,365.00 L 59.50,366.00 L 59.50,367.00 L 59.50,368.00 L 59.50,369.00 L 59.50,370.00 L 59.50,371.00 L 59.50,372.00 L 59.50,373.00 L 59.50,374.00 L 59.50,375.00 L 59.50,376.00 L 59.50,377.00 L 59.50,378.00 L 59.50,379.00 L 59.50,380.00 L 59.50,381.00 L 59.50,382.00 L 59.50,383.00 L 59.50,384.00 L 59.50,385.00 L 59.50,386.00 L 59.50,387.00 L 59.50,388.00 L 59.50,389.00 L 59.50,390.00 L 59.50,391.00 L 59.50,392.00 L 59.50,393.00 L 59.50,394.00 L 59.50,395.00 L 59.50,396.00 L 59.50,397.00 L 59.50,398.00 L 59.50,399.00 L 59.50,400.00 L 59.50,401.00 L 59.50,402.00 L 59.50,403.00 L 59.50,404.00 L 59.50,405.00 L 59.50,406.00 L 59.50,407.00 L 59.50,408.00 L 59.50,409.00 L 59.50,410.00 L 59.50,411.00 L 59.50,412.00 L 59.50,413.00 L 59.50,414.00 L 59.50,415.00 L 59.50,416.00 L 59.50,417.00 L 59.50,418.00 L 59.50,419.00 L 59.50,420.00 L 59.50,421.00 L 59.50,422.00 L 59.50,423.00 L 59.50,424.00 L 59.50,425.00 L 59.50,426.00 L 59.50,427.00 L 59.50,428.00 L 59.50,429.00 L 59.50,430.00 L 59.50,431.00 L 59.50,432.00 L 59.50,433.00 L 59.50,434.00 L 59.50,435.00 L 59.50,436.00 L 59.50,437.00 L 59.50,438.00 L 59.50,439.00 L 59.50,440.00 L 59.50,441.00 L 59.50,442.00 L 59.50,443.00 L 59.50,444.00 L 59.50,445.00 L 59.50,446.00 L 59.50,447.00 L 59.50,448.00 L 59.50,449.00 L 59.50,450.00 L 59.50,451.00 L 59.50,452.00 L 60.00,452.50 L 60.50,452.00 L 61.00,451.50 L 61.50,451.00 L 62.00,450.50 L 62.50,450.00 L 63.00,449.50 L 63.50,449.00 L 64.00,448.50 L 64.50,448.00 L 65.00,447.50 L 65.50,447.00 L 66.00,446.50 L 66.50,446.00 L 67.00,445.50 L 67.50,445.00 L 68.00,444.50 L 68.50,444.00 L 69.00,443.50 L 69.50,443.00 L 70.00,442.50 L 70.50,442.00 L 71.00,441.50 L 71.50,441.00 L 72.00,440.50 L 72.50,440.00 L 73.00,439.50 L 73.50,439.00 L 74.00,438.50 L 74.50,438.00 L 75.00,437.50 L 75.50,437.00 L 76.00,436.50 L 76.50,436.00 L 77.00,435.50 L 77.50,435.00 L 78.00,434.50 L 78.50,434.00 L 79.00,433.50 L 79.50,433.00 L 80.00,432.50 L 80.50,432.00 L 81.00,431.50 L 81.50,431.00 L 82.00,430.50 L 82.50,430.00 L 83.00,429.50 L 83.50,429.00 L 84.00,428.50 L 84.50,428.00 L 85.00,427.50 L 85.50,427.00 L 86.00,426.50 L 86.50,426.00 L 87.00,425.50 L 87.50,425.00 L 88.00,424.50 L 88.50,424.00 L 89.00,423.50 L 89.50,423.00 L 90.00,422.50 L 90.50,422.00 L 91.00,421.50 L 91.50,421.00 L 92.00,420.50 L 92.50,420.00 L 93.00,419.50 L 93.50,419.00 L 94.00,418.50 L 94.50,418.00 L 95.00,417.50 L 95.50,417.00 L 96.00,416.50 L 96.50,416.00 L 97.00,415.50 L 97.50,415.00 L 98.00,414.50 L 98.50,414.00 L 99.00,413.50 L 99.50,413.00 L 100.00,412.50 L 100.50,412.00 L 101.00,411.50 L 101.50,411.00 L 102.00,410.50 L 102.50,410.00 L 103.00,409.50 L 103.50,409.00 L 104.00,408.50 L 104.50,408.00 L 105.00,407.50 L 105.50,407.00 L 106.00,406.50 L 106.50,406.00 L 107.00,405.50 L 107.50,405.00 L 108.00,404.50 L 108.50,404.00 L 109.00,403.50 L 109.50,403.00 L 110.00,402.50 L 110.50,402.00 L 111.00,401.50 L 111.50,401.00 L 112.00,400.50 L 112.50,400.00 L 113.00,399.50 L 113.50,399.00 L 114.00,398.50 L 114.50,398.00 L 115.00,397.50 L 115.50,397.00 L 116.00,396.50 L 116.50,396.00 L 117.00,395.50 L 117.50,395.00 L 118.00,394.50 L 118.50,394.00 L 119.00,393.50 L 119.50,393.00 L 120.00,392.50 L 120.50,392.00 L 121.00,391.50 L 121.50,391.00 L 122.00,390.50 L 122.50,390.00 L 123.00,389.50 L 123.50,389.00 L 124.00,388.50 L 124.50,388.00 L 125.00,387.50 L 125.50,387.00 L 126.00,386.50 L 126.50,386.00 L 127.00,385.50 L 127.50,385.00 L 128.00,384.50 L 128.50,384.00 L 129.00,383.50 L 129.50,383.00 L 130.00,382.50 L 130.50,382.00 L 131.00,381.50 L 131.50,381.00 L 132.00,380.50 L 132.50,380.00 L 133.00,379.50 L 133.50,379.00 L 134.00,378.50 L 134.50,378.00 L 135.00,377.50 L 135.50,377.00 L 136.00,376.50 L 136.50,376.00 L 137.00,375.50 L 137.50,375.00 L 138.00,374.50 L 138.50,374.00 L 139.00,373.50 L 139.50,373.00 L 140.00,372.50 L 140.50,372.00 L 141.00,371.50 L 141.50,371.00 L 142.00,370.50 L 142.50,370.00 L 143.00,369.50 L 143.50,369.00 L 144.00,368.50 L 144.50,368.00 L 145.00,367.50 L 145.50,367.00 L 146.00,366.50 L 146.50,366.00 L 147.00,365.50 L 147.50,365.00 L 148.00,364.50 L 148.50,364.00 L 149.00,363.50 L 149.50,363.00 L 150.00,362.50 L 150.50,362.00 L 151.00,361.50 L 151.50,361.00 L 152.00,360.50 L 152.50,360.00 L 153.00,359.50 L 153.50,359.00 L 154.00,358.50 L 154.50,358.00 L 155.00,357.50 L 155.50,357.00 L 156.00,356.50 L 156.50,356.00 L 157.00,355.50 L 157.50,355.00 L 158.00,354.50 L 158.50,354.00 L 159.00,353.50 L 159.50,353.00 L 160.00,352.50 L 160.50,352.00 L 161.00,351.50 L 161.50,351.00 L 162.00,350.50 L 162.50,350.00 L 163.00,349.50 L 163.50,349.00 L 164.00,348.50 L 164.50,348.00 L 165.00,347.50 L 165.50,347.00 L 166.00,346.50 L 166.50,346.00 L 167.00,345.50 L 167.50,345.00 L 168.00,344.50 L 168.50,344.00 L 169.00,343.50 L 169.50,343.00 L 170.00,342.50 L 170.50,342.00 L 171.00,341.50 L 171.50,341.00 L 172.00,340.50 L 172.50,340.00 L 173.00,339.50 L 173.50,339.00 L 174.00,338.50 L 174.50,338.00 L 175.00,337.50 L 175.50,337.00 L 176.00,336.50 L 176.50,336.00 L 177.00,335.50 L 177.50,335.00 L 178.00,334.50 L 178.50,334.00 L 179.00,333.50 L 179.50,333.00 L 180.00,332.50 L 180.50,332.00 L 181.00,331.50 L 181.50,331.00 L 182.00,330.50 L 182.50,330.00 L 183.00,329.50 L 183.50,329.00 L 184.00,328.50 L 184.50,328.00 L 185.00,327.50 L 185.50,327.00 L 186.00,326.50 L 186.50,326.00 L 187.00,325.50 L 187.50,325.00 L 188.00,324.50 L 188.50,324.00 L 189.00,323.50 L 189.50,323.00 L 190.00,322.50 L 190.50,322.00 L 191.00,321.50 L 191.50,321.00 L 192.00,320.50 L 192.50,320.00 L 193.00,319.50 L 193.50,319.00 L 194.00,318.50 L 194.50,318.00 L 195.00,317.50 L 195.50,317.00 L 196.00,316.50 L 196.50,316.00 L 197.00,315.50 L 197.50,315.00 L 198.00,314.50 L 198.50,314.00 L 199.00,313.50 L 199.50,313.00 L 200.00,312.50 L 200.50,312.00 L 201.00,311.50 L 201.50,311.00 L 202.00,310.50 L 202.50,310.00 L 203.00,309.50 L 203.50,309.00 L 204.00,308.50 L 204.50,308.00 L 205.00,307.50 L 205.50,307.00 L 206.00,306.50 L 206.50,306.00 L 207.00,305.50 L 207.50,305.00 L 208.00,304.50 L 208.50,304.00 L 209.00,303.50 L 209.50,303.00 L 210.00,302.50 L 210.50,302.00 L 211.00,301.50 L 211.50,301.00 L 212.00,300.50 L 212.50,300.00 L 213.00,299.50 L 213.50,299.00 L 214.00,298.50 L 214.50,298.00 L 215.00,297.50 L 215.50,297.00 L 216.00,296.50 L 216.50,296.00 L 217.00,295.50 L 217.50,295.00 L 218.00,294.50 L 218.50,294.00 L 219.00,293.50 L 219.50,293.00 L 220.00,292.50 L 220.50,292.00 L 221.00,291.50 L 221.50,291.00 L 222.00,290.50 L 222.50,290.00 L 223.00,289.50 L 223.50,289.00 L 224.00,288.50 L 224.50,288.00 L 225.00,287.50 L 225.50,287.00 L 226.00,286.50 L 226.50,286.00 L 227.00,285.50 L 227.50,285.00 L 228.00,284.50 L 228.50,284.00 L 229.00,283.50 L 229.50,283.00 L 230.00,282.50 L 230.50,282.00 L 231.00,281.50 L 231.50,281.00 L 232.00,280.50 L 232.50,280.00 L 233.00,279.50 L 233.50,279.00 L 234.00,278.50 L 234.50,278.00 L 235.00,277.50 L 235.50,277.00 L 236.00,276.50 L 236.50,276.00 L 237.00,275.50 L 237.50,275.00 L 238.00,274.50 L 238.50,274.00 L 239.00,273.50 L 239.50,273.00 L 240.00,272.50 L 240.50,272.00 L 241.00,271.50 L 241.50,271.00 L 242.00,270.50 L 242.50,270.00 L 243.00,269.50 L 243.50,269.00 L 244.00,268.50 L 244.50,268.00 L 245.00,267.50 L 245.50,267.00 L 246.00,266.50 L 246.50,266.00 L 247.00,265.50 L 248.00,265.50 L 248.50,265.00 L 249.00,264.50 L 250.00,264.50 L 250.50,264.00 L 251.00,263.50 L 252.00,263.50 L 252.50,263.00 L 253.00,262.50 L 254.00,262.50 L 254.50,262.00 L 255.00,261.50 L 256.00,261.50 L 257.00,261.50 L 258.00,261.50 L 258.50,261.00 L 259.00,260.50 L 260.00,260.50 L 261.00,260.50 L 262.00,260.50 L 263.00,260.50 L 264.00,260.50 L 265.00,260.50 L 266.00,260.50 L 267.00,260.50 L 268.00,260.50 L 269.00,260.50 L 269.50,261.00 L 270.00,261.50 L 271.00,261.50 L 272.00,261.50 L 273.00,261.50 L 274.00,261.50 L 274.50,262.00 L 275.00,262.50 L 276.00,262.50 L 276.50,263.00 L 277.00,263.50 L 278.00,263.50 L 278.50,264.00 L 279.00,264.50 L 280.00,264.50 L 280.50,265.00 L 281.00,265.50 L 282.00,265.50 L 282.50,266.00 L 283.00,266.50 L 283.50,267.00 L 284.00,267.50 L 284.50,268.00 L 285.00,268.50 L 285.50,269.00 L 286.00,269.50 L 286.50,270.00 L 287.00,270.50 L 287.50,271.00 L 288.00,271.50 L 288.50,272.00 L 289.00,272.50 L 289.50,273.00 L 289.50,274.00 L 290.00,274.50 L 290.50,275.00 L 291.00,275.50 L 291.50,276.00 L 291.50,277.00 L 292.00,277.50 L 292.50,278.00 L 292.50,279.00 L 292.50,280.00 L 293.00,280.50 L 293.50,281.00 L 293.50,282.00 L 293.50,283.00 L 294.00,283.50 L 294.50,284.00 L 294.50,285.00 L 294.50,286.00 L 294.50,287.00 L 294.50,288.00 L 294.50,289.00 L 294.50,290.00 L 294.50,291.00 L 294.50,292.00 L 294.50,293.00 L 294.50,294.00 L 294.50,295.00 L 294.50,296.00 L 294.50,297.00 L 294.50,298.00 L 294.50,299.00 L 294.00,299.50 L 293.50,300.00 L 293.50,301.00 L 293.50,302.00 L 293.00,302.50 L 292.50,303.00 L 292.50,304.00 L 292.00,304.50 L 291.50,305.00 L 291.50,306.00 L 291.00,306.50 L 290.50,307.00 L 290.50,308.00 L 290.00,308.50 L 289.50,309.00 L 289.00,309.50 L 288.50,310.00 L 288.00,310.50 L 287.50,311.00 L 287.50,312.00 L 287.00,312.50 L 286.50,313.00 L 286.00,313.50 L 285.50,314.00 L 285.00,314.50 L 284.50,315.00 L 284.00,315.50 L 283.50,316.00 L 283.00,316.50 L 282.50,317.00 L 282.00,317.50 L 281.50,318.00 L 281.00,318.50 L 280.50,319.00 L 280.00,319.50 L 279.50,320.00 L 279.00,320.50 L 278.50,321.00 L 278.00,321.50 L 277.50,322.00 L 277.00,322.50 L 276.50,323.00 L 276.00,323.50 L 275.50,324.00 L 275.00,324.50 L 274.50,325.00 L 274.00,325.50 L 273.50,326.00 L 273.00,326.50 L 272.50,327.00 L 272.00,327.50 L 271.50,328.00 L 271.00,328.50 L 270.50,329.00 L 270.00,329.50 L 269.50,330.00 L 269.00,330.50 L 268.50,331.00 L 268.00,331.50 L 267.50,332.00 L 267.00,332.50 L 266.50,333.00 L 266.00,333.50 L 265.50,334.00 L 265.00,334.50 L 264.50,335.00 L 264.00,335.50 L 263.50,336.00 L 263.00,336.50 L 262.50,337.00 L 262.00,337.50 L 261.50,338.00 L 261.00,338.50 L 260.50,339.00 L 260.00,339.50 L 259.50,340.00 L 259.00,340.50 L 258.50,341.00 L 258.00,341.50 L 257.50,342.00 L 257.00,342.50 L 256.50,343.00 L 256.00,343.50 L 255.50,344.00 L 255.00,344.50 L 254.50,345.00 L 254.00,345.50 L 253.50,346.00 L 253.00,346.50 L 252.50,347.00 L 252.00,347.50 L 251.50,348.00 L 251.00,348.50 L 250.50,349.00 L 250.00,349.50 L 249.50,350.00 L 249.00,350.50 L 248.50,351.00 L 248.00,351.50 L 247.50,352.00 L 247.00,352.50 L 246.50,353.00 L 246.00,353.50 L 245.50,354.00 L 245.00,354.50 L 244.50,355.00 L 244.00,355.50 L 243.50,356.00 L 243.00,356.50 L 242.50,357.00 L 242.00,357.50 L 241.50,358.00 L 241.00,358.50 L 240.50,359.00 L 240.00,359.50 L 239.50,360.00 L 239.00,360.50 L 238.50,361.00 L 238.00,361.50 L 237.50,362.00 L 237.00,362.50 L 236.50,363.00 L 236.00,363.50 L 235.50,364.00 L 235.00,364.50 L 234.50,365.00 L 234.00,365.50 L 233.50,366.00 L 233.00,366.50 L 232.50,367.00 L 232.00,367.50 L 231.50,368.00 L 231.00,368.50 L 230.50,369.00 L 230.00,369.50 L 229.50,370.00 L 229.00,370.50 L 228.50,371.00 L 228.00,371.50 L 227.50,372.00 L 227.00,372.50 L 226.50,373.00 L 226.00,373.50 L 225.50,374.00 L 225.00,374.50 L 224.50,375.00 L 224.00,375.50 L 223.50,376.00 L 223.00,376.50 L 222.50,377.00 L 222.00,377.50 L 221.50,378.00 L 221.00,378.50 L 220.50,379.00 L 220.00,379.50 L 219.50,380.00 L 219.00,380.50 L 218.50,381.00 L 218.00,381.50 L 217.50,382.00 L 217.00,382.50 L 216.50,383.00 L 216.00,383.50 L 215.50,384.00 L 215.00,384.50 L 214.50,385.00 L 214.00,385.50 L 213.50,386.00 L 213.00,386.50 L 212.50,387.00 L 212.00,387.50 L 211.50,388.00 L 211.00,388.50 L 210.50,389.00 L 210.00,389.50 L 209.50,390.00 L 209.00,390.50 L 208.50,391.00 L 208.00,391.50 L 207.50,392.00 L 207.00,392.50 L 206.50,393.00 L 206.00,393.50 L 205.50,394.00 L 205.00,394.50 L 204.50,395.00 L 204.00,395.50 L 203.50,396.00 L 203.00,396.50 L 202.50,397.00 L 202.00,397.50 L 201.50,398.00 L 201.00,398.50 L 200.50,399.00 L 200.00,399.50 L 199.50,400.00 L 199.00,400.50 L 198.50,401.00 L 198.00,401.50 L 197.50,402.00 L 197.00,402.50 L 196.50,403.00 L 196.00,403.50 L 195.50,404.00 L 195.00,404.50 L 194.50,405.00 L 194.00,405.50 L 193.50,406.00 L 193.00,406.50 L 192.50,407.00 L 192.00,407.50 L 191.50,408.00 L 191.00,408.50 L 190.50,409.00 L 190.00,409.50 L 189.50,410.00 L 189.00,410.50 L 188.50,411.00 L 188.00,411.50 L 187.50,412.00 L 187.00,412.50 L 186.50,413.00 L 186.00,413.50 L 185.50,414.00 L 185.00,414.50 L 184.50,415.00 L 184.00,415.50 L 183.50,416.00 L 183.00,416.50 L 182.50,417.00 L 182.00,417.50 L 181.50,418.00 L 181.00,418.50 L 180.50,419.00 L 180.00,419.50 L 179.50,420.00 L 179.00,420.50 L 178.50,421.00 L 178.00,421.50 L 177.50,422.00 L 177.00,422.50 L 176.50,423.00 L 176.00,423.50 L 175.50,424.00 L 175.00,424.50 L 174.50,425.00 L 174.00,425.50 L 173.50,426.00 L 173.00,426.50 L 172.50,427.00 L 172.00,427.50 L 171.50,428.00 L 171.00,428.50 L 170.50,429.00 L 170.00,429.50 L 169.50,430.00 L 169.00,430.50 L 168.50,431.00 L 168.00,431.50 L 167.50,432.00 L 167.00,432.50 L 166.50,433.00 L 166.00,433.50 L 165.50,434.00 L 165.00,434.50 L 164.50,435.00 L 164.00,435.50 L 163.50,436.00 L 163.00,436.50 L 162.50,437.00 L 162.00,437.50 L 161.50,438.00 L 161.00,438.50 L 160.50,439.00 L 160.00,439.50 L 159.50,440.00 L 159.00,440.50 L 158.50,441.00 L 158.00,441.50 L 157.50,442.00 L 157.00,442.50 L 156.50,443.00 L 156.00,443.50 L 155.50,444.00 L 155.00,444.50 L 154.50,445.00 L 154.50,446.00 L 154.00,446.50 L 153.50,447.00 L 153.00,447.50 L 152.50,448.00 L 152.00,448.50 L 151.50,449.00 L 151.00,449.50 L 150.50,450.00 L 150.00,450.50 L 149.50,451.00 L 149.00,451.50 L 148.50,452.00 L 148.00,452.50 L 147.50,453.00 L 147.00,453.50 L 146.50,454.00 L 146.00,454.50 L 145.50,455.00 L 145.00,455.50 L 144.50,456.00 L 144.00,456.50 L 143.50,457.00 L 143.00,457.50 L 142.50,458.00 L 142.00,458.50 L 141.50,459.00 L 141.00,459.50 L 140.50,460.00 L 140.00,460.50 L 139.50,461.00 L 139.00,461.50 L 138.50,462.00 L 138.00,462.50 L 137.50,463.00 L 137.00,463.50 L 136.50,464.00 L 136.00,464.50 L 135.50,465.00 L 135.00,465.50 L 134.50,466.00 L 134.00,466.50 L 133.50,467.00 L 133.00,467.50 L 132.50,468.00 L 132.00,468.50 L 131.50,469.00 L 131.00,469.50 L 130.50,470.00 L 130.00,470.50 L 129.50,471.00 L 129.00,471.50 L 128.50,472.00 L 128.00,472.50 L 127.50,473.00 L 127.00,473.50 L 126.50,474.00 L 126.00,474.50 L 125.50,475.00 L 125.00,475.50 L 124.50,476.00 L 124.00,476.50 L 123.50,477.00 L 123.00,477.50 L 122.50,478.00 L 122.00,478.50 L 121.50,479.00 L 121.00,479.50 L 120.50,480.00 L 120.00,480.50 L 119.50,481.00 L 119.00,481.50 L 118.50,482.00 L 118.00,482.50 L 117.50,483.00 L 117.00,483.50 L 116.50,484.00 L 116.00,484.50 L 115.50,485.00 L 115.00,485.50 L 114.50,486.00 L 114.00,486.50 L 113.50,487.00 L 113.00,487.50 L 112.50,488.00 L 112.00,488.50 L 111.50,489.00 L 111.00,489.50 L 110.50,490.00 L 110.00,490.50 L 109.50,491.00 L 109.00,491.50 L 108.50,492.00 L 108.00,492.50 L 107.50,493.00 L 107.00,493.50 L 106.50,494.00 L 106.00,494.50 L 105.50,495.00 L 105.00,495.50 L 104.50,496.00 L 104.00,496.50 L 103.50,497.00 L 103.00,497.50 L 102.50,498.00 L 102.00,498.50 L 101.50,499.00 L 101.00,499.50 L 100.50,500.00 L 100.00,500.50 L 99.50,501.00 L 99.00,501.50 L 98.50,502.00 L 98.00,502.50 L 97.50,503.00 L 97.00,503.50 L 96.50,504.00 L 96.00,504.50 L 95.50,505.00 L 95.00,505.50 L 94.50,506.00 L 94.00,506.50 L 93.50,507.00 L 93.00,507.50 L 92.50,508.00 L 92.00,508.50 L 91.50,509.00 L 91.00,509.50 L 90.50,510.00 L 90.00,510.50 L 89.50,511.00 L 89.00,511.50 L 88.50,512.00 L 88.00,512.50 L 87.50,513.00 L 87.00,513.50 L 86.50,514.00 L 86.00,514.50 L 85.50,515.00 L 85.00,515.50 L 84.50,516.00 L 84.00,516.50 L 83.50,517.00 L 83.00,517.50 L 82.50,518.00 L 82.00,518.50 L 81.50,519.00 L 81.00,519.50 L 80.50,520.00 L 80.00,520.50 L 79.50,521.00 L 79.00,521.50 L 78.50,522.00 L 78.00,522.50 L 77.50,523.00 L 77.00,523.50 L 76.50,524.00 L 76.00,524.50 L 75.50,525.00 L 75.00,525.50 L 74.50,526.00 L 74.00,526.50 L 73.50,527.00 L 73.00,527.50 L 72.50,528.00 L 72.00,528.50 L 71.50,529.00 L 71.00,529.50 L 70.50,530.00 L 70.00,530.50 L 69.50,531.00 L 69.00,531.50 L 68.50,532.00 L 68.00,532.50 L 67.50,533.00 L 67.00,533.50 L 66.50,534.00 L 66.00,534.50 L 65.50,535.00 L 65.00,535.50 L 64.50,536.00 L 64.00,536.50 L 63.50,537.00 L 63.00,537.50 L 62.50,538.00 L 62.00,538.50 L 61.50,539.00 L 61.00,539.50 L 60.50,540.00 L 60.00,540.50 L 59.50,541.00 L 59.00,541.50 L 58.50,542.00 L 58.00,542.50 L 57.50,543.00 L 57.00,543.50 L 56.50,544.00 L 56.00,544.50 L 55.50,545.00 L 55.00,545.50 L 54.50,546.00 L 54.00,546.50 L 53.50,547.00 L 53.00,547.50 L 52.50,548.00 L 52.00,548.50 L 51.50,549.00 L 51.00,549.50 L 50.50,550.00 L 50.00,550.50 L 49.50,551.00 L 49.00,551.50 L 48.50,552.00 L 48.00,552.50 L 47.00,552.50 L 46.50,553.00 L 46.00,553.50 L 45.50,554.00 L 45.00,554.50 L 44.00,554.50 L 43.50,555.00 L 43.00,555.50 L 42.00,555.50 L 41.50,556.00 L 41.00,556.50 L 40.00,556.50 L 39.00,556.50 L 38.50,557.00 L 38.00,557.50 L 37.00,557.50 L 36.00,557.50 L 35.00,557.50 L 34.00,557.50 L 33.50,558.00 L 33.00,558.50 L 32.00,558.50 L 31.00,558.50 L 30.00,558.50 L 29.00,558.50 L 28.00,558.50 L 27.00,558.50 L 26.00,558.50 L 25.00,558.50 L 24.50,558.00 L 24.00,557.50 L 23.00,557.50 L 22.00,557.50 L 21.00,557.50 L 20.00,557.50 L 19.50,557.00 L 19.00,556.50 L 18.00,556.50 L 17.50,556.00 L 17.00,555.50 L 16.00,555.50 L 15.50,555.00 L 15.00,554.50 L 14.00,554.50 L 13.50,554.00 L 13.00,553.50 L 12.00,553.50 L 11.50,553.00 L 11.00,552.50 L 10.50,552.00 L 10.00,551.50 L 9.00,551.50 L 8.50,551.00 L 8.00,550.50 L 7.50,550.00 L 7.00,549.50 L 6.50,549.00 L 6.00,548.50 L 5.50,548.00 L 5.50,547.00 L 5.00,546.50 L 4.50,546.00 L 4.00,545.50 L 3.50,545.00 L 3.00,544.50 L 2.50,544.00 L 2.50,543.00 L 2.00,542.50 L 1.50,542.00 L 1.50,541.00 L 1.00,540.50 L 0.50,540.00 L 0.50,539.00 L 0.50,538.00 L 0.00,537.50 Z" fill="black"/>
</svg>
